# Blender v2.82 (sub 7) OBJ File: 'billboard.blend'
# www.blender.org
mtllib billboard.mtl
o billboard_Cube.001
v -2.000000 0.500000 0.050000
v -2.000000 3.500000 0.050000
v -2.000000 0.500000 -0.050000
v -2.000000 3.500000 -0.050000
v 2.000000 0.500000 0.050000
v 2.000000 3.500000 0.050000
v 2.000000 0.500000 -0.050000
v 2.000000 3.500000 -0.050000
vt 0.114870 0.058267
vt 0.175140 0.058267
vt 0.175140 0.118537
vt 0.114870 0.118537
vt 0.175140 0.178806
vt 0.114870 0.178806
vt 0.175140 0.239076
vt 0.114870 0.239076
vt 0.008584 0.334664
vt 0.994516 0.334664
vt 0.994516 0.993682
vt 0.008584 0.993682
vt 0.054601 0.178806
vt 0.054601 0.239076
vt 0.235409 0.178806
vt 0.235409 0.239076
vn -1.0000 0.0000 0.0000
vn 0.0000 0.0000 -1.0000
vn 1.0000 0.0000 0.0000
vn 0.0000 0.0000 1.0000
vn 0.0000 -1.0000 0.0000
vn 0.0000 1.0000 0.0000
usemtl None
s off
f 1/1/1 2/2/1 4/3/1 3/4/1
f 3/4/2 4/3/2 8/5/2 7/6/2
f 7/6/3 8/5/3 6/7/3 5/8/3
f 5/9/4 6/10/4 2/11/4 1/12/4
f 3/13/5 7/6/5 5/8/5 1/14/5
f 8/5/6 4/15/6 2/16/6 6/7/6
o stands_Cube.002
v 1.532938 0.000000 0.000000
v 1.532938 2.159680 0.000000
v 1.532938 0.000000 -0.400000
v 1.532938 2.159680 -0.095141
v 1.632938 0.000000 0.000000
v 1.632938 2.159680 0.000000
v 1.632938 0.000000 -0.400000
v 1.632938 2.159680 -0.095141
v -1.532938 0.000000 0.000000
v -1.532938 2.159680 0.000000
v -1.532938 0.000000 -0.400000
v -1.532938 2.159680 -0.095141
v -1.632938 0.000000 0.000000
v -1.632938 2.159680 0.000000
v -1.632938 0.000000 -0.400000
v -1.632938 2.159680 -0.095141
vt 0.589544 0.210980
vt 0.589544 0.113134
vt 0.687390 0.113134
vt 0.687390 0.210980
vt 0.785236 0.113134
vt 0.785236 0.210980
vt 0.883082 0.113134
vt 0.883082 0.210980
vt 0.980928 0.113134
vt 0.980928 0.210980
vt 0.785236 0.308826
vt 0.883082 0.308826
vt 0.785236 0.015288
vt 0.883082 0.015288
vt 0.589544 0.210980
vt 0.687390 0.210980
vt 0.687390 0.113134
vt 0.589544 0.113134
vt 0.785236 0.210980
vt 0.785236 0.113134
vt 0.883082 0.210980
vt 0.883082 0.113134
vt 0.980928 0.210980
vt 0.980928 0.113134
vt 0.785236 0.308826
vt 0.883082 0.308826
vt 0.883082 0.015288
vt 0.785236 0.015288
vn -1.0000 0.0000 0.0000
vn 0.0000 0.1398 -0.9902
vn 1.0000 -0.0000 0.0000
vn 0.0000 0.0000 1.0000
vn 0.0000 -1.0000 0.0000
vn 0.0000 1.0000 0.0000
usemtl None
s off
f 9/17/7 10/18/7 12/19/7 11/20/7
f 11/20/8 12/19/8 16/21/8 15/22/8
f 15/22/9 16/21/9 14/23/9 13/24/9
f 13/24/10 14/23/10 10/25/10 9/26/10
f 11/27/11 15/22/11 13/24/11 9/28/11
f 16/21/12 12/29/12 10/30/12 14/23/12
f 17/31/9 19/32/9 20/33/9 18/34/9
f 19/32/8 23/35/8 24/36/8 20/33/8
f 23/35/7 21/37/7 22/38/7 24/36/7
f 21/37/10 17/39/10 18/40/10 22/38/10
f 19/41/11 17/42/11 21/37/11 23/35/11
f 24/36/12 22/38/12 18/43/12 20/44/12
